<svg xmlns="http://www.w3.org/2000/svg" viewBox="0 0 120 40">
  <!-- Mastercard (left) -->
  <g transform="translate(0,5) scale(0.278)">
    <rect x="60.4" y="25.7" width="31.5" height="56.6" fill="#FF5F00"/>
    <path fill="#EB001B" d="M62.4,54c0-11,5.1-21.5,13.7-28.3c-15.6-12.3-38.3-9.6-50.6,6.1C13.3,47.4,16,70,31.7,82.3c13.1,10.3,31.4,10.3,44.5,0C67.5,75.5,62.4,65,62.4,54z"/>
    <path fill="#F79E1B" d="M134.4,54c0,19.9-16.1,36-36,36c-8.1,0-15.9-2.7-22.2-7.7c15.6-12.3,18.3-34.9,6-50.6c-1.8-2.2-3.8-4.3-6-6c15.6-12.3,38.3-9.6,50.5,6.1C131.7,38.1,134.4,45.9,134.4,54z"/>
  </g>
  <!-- Visa (right) -->
  <g transform="translate(-38,-44.4) scale(0.06)">
    <path fill="#1434CB" d="M1461.26,739.84l-251.37,599.74h-164l-123.7-478.62c-7.51-29.48-14.04-40.28-36.88-52.7c-37.29-20.23-98.87-39.21-153.05-50.99l3.68-17.43h263.99c33.65,0,63.9,22.4,71.54,61.15l65.33,347.04l161.46-408.2H1461.26z M2103.84,1143.77c0.66-158.29-218.88-167.01-217.37-237.72c0.47-21.52,20.96-44.4,65.81-50.24c22.23-2.91,83.48-5.13,152.95,26.84l27.25-127.18c-37.33-13.55-85.36-26.59-145.12-26.59c-153.35,0-261.27,81.52-262.18,198.25c-0.99,86.34,77.03,134.52,135.81,163.21c60.47,29.38,80.76,48.26,80.53,74.54c-0.43,40.23-48.23,57.99-92.9,58.69c-77.98,1.2-123.23-21.1-159.3-37.87l-28.12,131.39c36.25,16.63,103.16,31.14,172.53,31.87C1996.72,1348.96,2103.34,1268.45,2103.84,1143.77 M2508.78,1339.58h143.49l-125.25-599.74h-132.44c-29.78,0-54.9,17.34-66.02,44l-232.81,555.74h162.91L2291,1250h199.05L2508.78,1339.58z M2335.67,1127.08l81.66-225.18l47,225.18H2335.67z M1682.93,739.84l-128.29,599.74H1399.5l128.34-599.74H1682.93z"/>
  </g>
</svg>
