<?xml version="1.0" encoding="utf-8"?>
<!-- Generator: Adobe Illustrator 25.2.0, SVG Export Plug-In . SVG Version: 6.00 Build 0)  -->
<svg version="1.1" id="Layer_1" xmlns="http://www.w3.org/2000/svg" xmlns:xlink="http://www.w3.org/1999/xlink" x="0px" y="0px"
	 viewBox="0 0 70 50" style="enable-background:new 0 0 70 50;" xml:space="preserve">
<style type="text/css">
	.st0{fill:#1A1F71;}
	.st1{opacity:0.1;}
</style>
<desc>Created with Sketch.</desc>
<path id="visa-logo" class="st0" d="M19.1,34.5h-5.1l-4-14.9c-0.2-0.7-0.6-1.3-1.2-1.6c-1.4-0.7-3-1.3-4.8-1.6v-0.6h8.4
	c1.2,0,2,0.8,2.2,1.8l2,10.7l5.1-12.6h5.1L19.1,34.5z M29.7,34.5h-4.9l4.1-18.6h4.9L29.7,34.5z M40,21c0.1-1,1-1.6,2-1.6
	c1.6-0.1,3.4,0.1,4.8,0.8l0.8-4c-1.4-0.6-3-0.8-4.4-0.8c-4.8,0-8.3,2.5-8.3,6.1c0,2.8,2.4,4.2,4.2,5c1.9,0.8,2.6,1.4,2.4,2.3
	c0,1.3-1.4,1.8-2.9,1.8c-1.7,0-3.5-0.5-5-1.2l-0.8,4c1.7,0.7,3.6,1,5.3,1c5.3,0.1,8.6-2.4,8.6-6.2C46.9,23.4,40,23.2,40,21L40,21z
	 M64,34.5l-3.8-18.6H56c-0.8,0-1.7,0.6-2,1.4l-7.2,17.1h5l1-2.8H59l0.6,2.8H64z M56.7,20.8l1.4,6.9h-4.1L56.7,20.8z"/>
<g id="mastercard-bg" class="st1">
	<path d="M63.3,1C66.4,1,69,3.6,69,6.6v36.7c0,3.1-2.5,5.6-5.6,5.6l-56.8,0l-0.1,0C3.5,49,1,46.4,1,43.4V6.6C1,3.6,3.6,1,6.6,1H63.3
		 M63.3,0H6.6C3,0,0,3,0,6.6v36.8C0,47,2.9,50,6.4,50c0.1,0,0.1,0,0.2,0h56.8c3.6,0,6.6-2.9,6.6-6.6V6.6C70,3,67,0,63.3,0L63.3,0z"
		/>
</g>
</svg>
