<?xml version="1.0" encoding="utf-8"?>
<!-- Generator: Adobe Illustrator 25.2.0, SVG Export Plug-In . SVG Version: 6.00 Build 0)  -->
<svg version="1.1" id="Layer_1" xmlns="http://www.w3.org/2000/svg" xmlns:xlink="http://www.w3.org/1999/xlink" x="0px" y="0px"
	 viewBox="0 0 70 50" style="enable-background:new 0 0 70 50;" xml:space="preserve">
<style type="text/css">
	.st0{opacity:0.1;}
	.st1{fill:#FF5F00;}
	.st2{fill:#EB001B;}
	.st3{fill:#F79E1B;}
</style>
<desc>Created with Sketch.</desc>
<g id="mastercard-bg" class="st0">
	<path d="M63.3,1C66.4,1,69,3.5,69,6.6v36.7c0,3.1-2.5,5.6-5.6,5.6l-56.8,0l-0.1,0c-2.9,0-5.4-2.5-5.4-5.5V6.6C1,3.6,3.6,1,6.6,1
		H63.3 M63.3,0H6.6C3,0,0,3,0,6.6v36.8c0,3.5,2.9,6.5,6.4,6.5c0.1,0,0.1,0,0.2,0h56.8c3.6,0,6.6-2.9,6.6-6.6V6.6C70,3,67,0,63.3,0
		L63.3,0z"/>
</g>
<g>
	<g>
		<g>
			<path id="XMLID_1775_" d="M19.1,44.2v-2.6c0-1-0.6-1.6-1.6-1.6c-0.5,0-1.1,0.2-1.4,0.7c-0.3-0.5-0.7-0.7-1.4-0.7
				c-0.4,0-0.9,0.1-1.2,0.6v-0.5h-0.9v4.1h0.9V42c0-0.7,0.4-1.1,1-1.1c0.6,0,0.9,0.4,0.9,1.1v2.3h0.9V42c0-0.7,0.4-1.1,1-1.1
				c0.6,0,0.9,0.4,0.9,1.1v2.3H19.1z M32.4,40.1H31v-1.2h-0.9v1.2h-0.8v0.8h0.8v1.9c0,1,0.4,1.5,1.4,1.5c0.4,0,0.8-0.1,1.1-0.3
				l-0.3-0.8c-0.3,0.2-0.6,0.2-0.8,0.2c-0.4,0-0.6-0.3-0.6-0.7v-1.9h1.5V40.1z M40,40c-0.5,0-0.8,0.2-1.1,0.6v-0.5h-0.9v4.1H39v-2.3
				c0-0.7,0.3-1.1,0.9-1.1c0.2,0,0.4,0,0.6,0.1l0.3-0.8C40.5,40.1,40.2,40,40,40L40,40z M28.5,40.4c-0.4-0.3-1-0.4-1.7-0.4
				c-1,0-1.7,0.5-1.7,1.3c0,0.7,0.5,1.1,1.4,1.2l0.4,0.1c0.5,0.1,0.7,0.2,0.7,0.4c0,0.3-0.3,0.5-0.9,0.5c-0.6,0-1.1-0.2-1.4-0.4
				L25,43.8c0.5,0.4,1.1,0.5,1.8,0.5c1.2,0,1.9-0.6,1.9-1.3c0-0.7-0.5-1.1-1.4-1.2l-0.4-0.1c-0.4-0.1-0.7-0.1-0.7-0.4
				c0-0.3,0.3-0.5,0.8-0.5c0.5,0,1,0.2,1.3,0.4L28.5,40.4z M52.4,40c-0.5,0-0.8,0.2-1.1,0.6v-0.5h-0.9v4.1h0.9v-2.3
				c0-0.7,0.3-1.1,0.9-1.1c0.2,0,0.4,0,0.6,0.1l0.3-0.8C52.9,40.1,52.6,40,52.4,40L52.4,40z M40.9,42.2c0,1.2,0.9,2.2,2.2,2.2
				c0.6,0,1-0.1,1.5-0.5l-0.4-0.7c-0.3,0.2-0.7,0.4-1.1,0.4c-0.7,0-1.2-0.5-1.2-1.3c0-0.8,0.5-1.3,1.2-1.3c0.4,0,0.7,0.1,1.1,0.4
				l0.4-0.7c-0.4-0.4-0.9-0.5-1.5-0.5C41.8,40,40.9,40.9,40.9,42.2L40.9,42.2z M49.3,42.2v-2.1h-0.9v0.5c-0.3-0.4-0.7-0.6-1.3-0.6
				c-1.2,0-2.1,0.9-2.1,2.2c0,1.3,0.9,2.2,2.1,2.2c0.6,0,1-0.2,1.3-0.6v0.5h0.9V42.2z M46,42.2c0-0.7,0.5-1.3,1.2-1.3
				c0.7,0,1.2,0.6,1.2,1.3c0,0.7-0.5,1.3-1.2,1.3C46.5,43.5,46,42.9,46,42.2L46,42.2z M35.2,40c-1.2,0-2,0.9-2,2.2
				c0,1.3,0.9,2.2,2.1,2.2c0.6,0,1.2-0.2,1.7-0.6l-0.4-0.7c-0.3,0.3-0.8,0.4-1.2,0.4c-0.6,0-1.1-0.3-1.2-1h3c0-0.1,0-0.2,0-0.3
				C37.2,40.9,36.4,40,35.2,40L35.2,40z M35.2,40.8c0.6,0,0.9,0.4,1,1h-2.1C34.2,41.2,34.6,40.8,35.2,40.8L35.2,40.8z M57.6,42.2
				v-3.7h-0.9v2.1C56.4,40.3,56,40,55.4,40c-1.2,0-2.1,0.9-2.1,2.2c0,1.3,0.9,2.2,2.1,2.2c0.6,0,1-0.2,1.3-0.6v0.5h0.9V42.2z
				 M54.3,42.2c0-0.7,0.5-1.3,1.2-1.3c0.7,0,1.2,0.6,1.2,1.3c0,0.7-0.5,1.3-1.2,1.3C54.7,43.5,54.3,42.9,54.3,42.2L54.3,42.2z
				 M24.1,42.2v-2.1h-0.9v0.5c-0.3-0.4-0.7-0.6-1.3-0.6c-1.2,0-2.1,0.9-2.1,2.2c0,1.3,0.9,2.2,2.1,2.2c0.6,0,1-0.2,1.3-0.6v0.5h0.9
				V42.2z M20.8,42.2c0-0.7,0.5-1.3,1.2-1.3c0.7,0,1.2,0.6,1.2,1.3c0,0.7-0.5,1.3-1.2,1.3C21.3,43.5,20.8,42.9,20.8,42.2z
				 M59.1,43.6c0.1,0,0.1,0,0.2,0c0.1,0,0.1,0.1,0.1,0.1c0,0,0.1,0.1,0.1,0.1s0,0.1,0,0.2c0,0.1,0,0.1,0,0.2c0,0-0.1,0.1-0.1,0.1
				c0,0-0.1,0.1-0.1,0.1c-0.1,0-0.1,0-0.2,0c-0.1,0-0.1,0-0.2,0c-0.1,0-0.1-0.1-0.1-0.1c0,0-0.1-0.1-0.1-0.1c0,0,0-0.1,0-0.2
				c0-0.1,0-0.1,0-0.2c0,0,0.1-0.1,0.1-0.1c0,0,0.1-0.1,0.1-0.1C59,43.6,59,43.6,59.1,43.6z M59.1,44.4c0,0,0.1,0,0.1,0
				c0,0,0.1,0,0.1-0.1c0,0,0.1-0.1,0.1-0.1c0,0,0-0.1,0-0.1s0-0.1,0-0.1c0,0,0-0.1-0.1-0.1c0,0-0.1-0.1-0.1-0.1c0,0-0.1,0-0.1,0
				c0,0-0.1,0-0.1,0c0,0-0.1,0-0.1,0.1c0,0-0.1,0.1-0.1,0.1c0,0,0,0.1,0,0.1s0,0.1,0,0.1c0,0,0,0.1,0.1,0.1c0,0,0.1,0.1,0.1,0.1
				C59,44.3,59,44.4,59.1,44.4z M59.1,43.8c0,0,0.1,0,0.1,0c0,0,0,0.1,0,0.1c0,0,0,0.1,0,0.1c0,0-0.1,0-0.1,0l0.1,0.1h-0.1L59,44.1
				h0v0.1h-0.1v-0.4H59.1z M59,43.9V44h0.1c0,0,0,0,0.1,0c0,0,0,0,0,0c0,0,0,0,0,0C59.1,43.9,59.1,43.9,59,43.9L59,43.9z"/>
		</g>
		<g id="XMLID_328_">
			<rect x="28.2" y="8.9" class="st1" width="13.5" height="24.3"/>
			<path id="XMLID_330_" class="st2" d="M29.1,21c0-4.9,2.3-9.3,5.9-12.1c-2.6-2.1-5.9-3.3-9.5-3.3C16.9,5.6,10,12.5,10,21
				c0,8.5,6.9,15.5,15.5,15.5c3.6,0,6.9-1.2,9.5-3.3C31.4,30.3,29.1,25.9,29.1,21z"/>
			<path class="st3" d="M60,21c0,8.5-6.9,15.5-15.5,15.5c-3.6,0-6.9-1.2-9.5-3.3c3.6-2.8,5.9-7.2,5.9-12.1S38.6,11.7,35,8.9
				c2.6-2.1,5.9-3.3,9.5-3.3C53.1,5.6,60,12.5,60,21z M58.5,30.6v-0.5h0.2V30h-0.5v0.1h0.2v0.5H58.5z M59.5,30.6V30h-0.2l-0.2,0.4
				L59,30h-0.2v0.6H59v-0.5l0.2,0.4h0.1l0.2-0.4v0.5H59.5z"/>
		</g>
	</g>
</g>
</svg>
