<?xml version="1.0" encoding="utf-8"?>
<!-- Generator: Adobe Illustrator 25.2.0, SVG Export Plug-In . SVG Version: 6.00 Build 0)  -->
<svg version="1.1" id="Layer_1" xmlns="http://www.w3.org/2000/svg" xmlns:xlink="http://www.w3.org/1999/xlink" x="0px" y="0px"
	 viewBox="0 0 70 50" style="enable-background:new 0 0 70 50;" xml:space="preserve">
<style type="text/css">
	.st0{opacity:0.1;}
	.st1{fill:#7375CF;}
	.st2{fill:#EB001B;}
	.st3{fill:#00A2E5;}
</style>
<desc>Created with Sketch.</desc>
<g id="mastercard-bg" class="st0">
	<path d="M63.3,1C66.4,1,69,3.6,69,6.6v36.7c0,3.1-2.5,5.6-5.6,5.6l-56.8,0l-0.1,0C3.5,49,1,46.4,1,43.4V6.6C1,3.6,3.6,1,6.6,1H63.3
		 M63.3,0H6.6C3,0,0,3,0,6.6v36.8C0,47,2.9,50,6.4,50c0.1,0,0.1,0,0.2,0h56.8c3.6,0,6.6-2.9,6.6-6.6V6.6C70,3,67,0,63.3,0L63.3,0z"
		/>
</g>
<g>
	<g>
		<path d="M25.1,44.2v-2.6c0.1-0.8-0.6-1.6-1.4-1.6c-0.1,0-0.1,0-0.2,0c-0.6,0-1.1,0.2-1.4,0.7c-0.3-0.5-0.8-0.8-1.4-0.7
			c-0.5,0-0.9,0.2-1.2,0.6v-0.5h-0.9v4.1h0.9V42c-0.1-0.5,0.3-1,0.8-1.1c0.1,0,0.1,0,0.2,0c0.6,0,0.9,0.4,0.9,1.1v2.3h0.9V42
			c-0.1-0.5,0.3-1,0.8-1.1c0.1,0,0.1,0,0.2,0c0.6,0,0.9,0.4,0.9,1.1v2.3H25.1z M30.1,42.2v-2h-0.9v0.5C28.9,40.2,28.5,40,28,40
			c-1.2,0.1-2.1,1.1-2,2.3c0.1,1.1,0.9,2,2,2c0.5,0,1-0.2,1.3-0.6v0.5h0.9V42.2z M26.8,42.2c0-0.7,0.6-1.2,1.3-1.2
			c0.7,0,1.2,0.6,1.2,1.3c0,0.7-0.6,1.2-1.2,1.2C27.4,43.5,26.8,43,26.8,42.2C26.8,42.2,26.8,42.2,26.8,42.2z M49.2,40
			c0.3,0,0.6,0.1,0.9,0.2c0.3,0.1,0.5,0.3,0.7,0.5c0.2,0.2,0.4,0.4,0.5,0.7c0.2,0.5,0.2,1.2,0,1.7c-0.1,0.3-0.3,0.5-0.5,0.7
			c-0.2,0.2-0.4,0.3-0.7,0.5c-0.6,0.2-1.2,0.2-1.8,0c-0.3-0.1-0.5-0.3-0.7-0.5c-0.2-0.2-0.4-0.4-0.5-0.7c-0.2-0.5-0.2-1.2,0-1.7
			c0.1-0.3,0.3-0.5,0.5-0.7c0.2-0.2,0.4-0.3,0.7-0.5C48.6,40.1,48.9,40,49.2,40z M49.2,40.9c-0.2,0-0.3,0-0.5,0.1
			c-0.2,0.1-0.3,0.2-0.4,0.3c-0.1,0.1-0.2,0.3-0.3,0.4c-0.1,0.3-0.1,0.7,0,1.1c0.1,0.2,0.2,0.3,0.3,0.4c0.1,0.1,0.3,0.2,0.4,0.3
			c0.3,0.1,0.7,0.1,1,0c0.2-0.1,0.3-0.2,0.4-0.3c0.1-0.1,0.2-0.3,0.3-0.4c0.1-0.3,0.1-0.7,0-1.1c-0.1-0.2-0.2-0.3-0.3-0.4
			C50,41.1,49.9,41,49.7,41C49.6,40.9,49.4,40.9,49.2,40.9z M35,42.2c0-1.3-0.8-2.2-1.9-2.2c-1.2,0.1-2.1,1.1-2,2.3
			c0.1,1.1,1,2,2.1,2c0.6,0,1.2-0.2,1.7-0.6l-0.4-0.7c-0.3,0.3-0.8,0.4-1.2,0.4c-0.6,0.1-1.2-0.4-1.2-1h3C35,42.4,35,42.3,35,42.2z
			 M31.9,41.8c0-0.6,0.5-1,1.1-1c0.6,0,1,0.4,1,1H31.9z M38.7,41.2c-0.4-0.2-0.8-0.3-1.3-0.4c-0.5,0-0.8,0.2-0.8,0.5
			c0,0.3,0.3,0.4,0.7,0.4l0.4,0.1c0.9,0.1,1.4,0.5,1.4,1.2c0,0.8-0.7,1.3-1.9,1.3c-0.6,0-1.3-0.2-1.8-0.5l0.4-0.7
			c0.4,0.3,0.9,0.4,1.4,0.4c0.6,0,0.9-0.2,0.9-0.5c0-0.2-0.2-0.4-0.7-0.4l-0.4-0.1c-0.9-0.1-1.4-0.5-1.4-1.2c0-0.8,0.7-1.3,1.7-1.3
			c0.6,0,1.2,0.1,1.7,0.4L38.7,41.2z M43,40.9h-1.5v1.9c0,0.4,0.1,0.7,0.6,0.7c0.3,0,0.5-0.1,0.8-0.2l0.3,0.8
			c-0.3,0.2-0.7,0.3-1.1,0.3c-1.1,0-1.4-0.6-1.4-1.5v-1.9h-0.8v-0.8h0.8l0-1.2h0.9l0,1.2H43L43,40.9z M46.1,40c0.2,0,0.4,0,0.6,0.1
			L46.5,41c-0.2-0.1-0.4-0.1-0.6-0.1c-0.6,0-0.9,0.4-0.9,1.1v2.3h-0.9v-4.1H45v0.5C45.3,40.2,45.7,40,46.1,40L46.1,40z M52.3,43.6
			c0.1,0,0.1,0,0.2,0c0,0,0.1,0.1,0.1,0.1c0,0,0.1,0.1,0.1,0.1c0,0.1,0,0.2,0,0.3c0,0-0.1,0.1-0.1,0.1c0,0-0.1,0.1-0.1,0.1
			c-0.1,0-0.1,0-0.2,0c-0.2,0-0.3-0.1-0.4-0.2c0-0.1,0-0.2,0-0.3c0,0,0.1-0.1,0.1-0.1c0,0,0.1-0.1,0.1-0.1
			C52.2,43.6,52.2,43.6,52.3,43.6z M52.3,44.4c0,0,0.1,0,0.1,0c0,0,0.1,0,0.1-0.1c0.1-0.1,0.1-0.3,0-0.4c0,0-0.1-0.1-0.1-0.1
			c0,0-0.1,0-0.1,0c0,0-0.1,0-0.1,0c0,0-0.1,0-0.1,0.1c-0.1,0.1-0.1,0.3,0,0.4C52.1,44.3,52.2,44.4,52.3,44.4z M52.3,43.8
			c0,0,0.1,0,0.1,0c0,0,0,0.1,0,0.1c0,0,0,0.1,0,0.1c0,0-0.1,0-0.1,0l0.1,0.1h-0.1l-0.1-0.1h0v0.1h-0.1v-0.4H52.3z M52.2,43.9V44
			h0.1c0,0,0,0,0.1,0c0,0,0,0,0,0c0,0,0,0,0,0C52.3,43.9,52.3,43.9,52.2,43.9L52.2,43.9z"/>
		<g>
			<rect x="28.2" y="8.9" class="st1" width="13.5" height="24.3"/>
			<path class="st2" d="M29.1,21c0-4.7,2.2-9.2,5.9-12.1c-6.7-5.3-16.4-4.1-21.7,2.6s-4.1,16.4,2.6,21.7c5.6,4.4,13.5,4.4,19.1,0
				C31.3,30.2,29.1,25.7,29.1,21z"/>
			<path class="st3" d="M58.5,30.6v-0.5h0.2V30h-0.5v0.1h0.2v0.5H58.5z M59.5,30.6V30h-0.2l-0.2,0.4L59,30h-0.2v0.6H59v-0.5l0.2,0.4
				h0.1l0.2-0.4v0.5H59.5z"/>
			<path class="st3" d="M60,21c0,8.5-6.9,15.5-15.5,15.5c-3.5,0-6.8-1.2-9.5-3.3c6.7-5.3,7.9-15,2.6-21.7c-0.8-1-1.6-1.8-2.6-2.6
				c6.7-5.3,16.4-4.1,21.7,2.6C58.8,14.2,60,17.5,60,21z"/>
		</g>
	</g>
</g>
</svg>
