<svg width="247" height="82" viewBox="0 0 247 82" fill="none" xmlns="http://www.w3.org/2000/svg">
<g clip-path="url(#clip0_495_6028)">
<path d="M90.6846 10.3076H130.446V22.3586H103.741V34.4116H128.436V46.4676H103.741V69.5696H90.6846V10.3076Z" fill="#242B57"/>
<path d="M139.819 10.3081H161.832C164.754 10.2941 167.671 10.5733 170.537 11.1416C173.089 11.6279 175.522 12.6098 177.696 14.0318C179.759 15.4287 181.429 17.3304 182.549 19.5557C183.838 22.2866 184.455 25.2866 184.348 28.3047C184.443 31.2944 183.872 34.2678 182.676 37.0093C181.648 39.2436 180.062 41.1756 178.071 42.6192C175.982 44.0707 173.619 45.0816 171.126 45.5904C168.263 46.1939 165.344 46.4882 162.419 46.4683H152.876V69.5703H139.819V10.3081ZM152.876 35.419H161.585C162.722 35.423 163.857 35.3109 164.972 35.0845C166.007 34.8813 167 34.4991 167.904 33.9551C168.773 33.417 169.492 32.6687 169.995 31.7793C170.56 30.7109 170.835 29.5127 170.791 28.3047C170.854 27.0087 170.485 25.7285 169.741 24.6651C169.042 23.7395 168.122 23.0043 167.064 22.5269C165.911 22.0092 164.681 21.6841 163.423 21.5645C162.144 21.4294 160.86 21.3599 159.574 21.356H152.876V35.419Z" fill="#242B57"/>
<path d="M207.284 38.5976L187.696 10.3076H204.102L216.74 31.0626L228.879 10.3076H244.7L225.531 38.3486L246.96 69.5716H230.552L216.075 45.7126L202.011 69.5716H186.525L207.284 38.5976Z" fill="#242B57"/>
<path d="M33.4965 58.4516L25.2314 47.2626C24.0048 45.5991 21.8857 43.4062 21.8857 41.2094C21.8857 39.018 23.9936 36.8251 25.2314 35.1552L33.4965 23.956C33.8234 23.5023 34.2063 23.0918 34.6362 22.7343V9.84658C34.6362 -0.505922 30.3042 -3.11772 25.0127 4.04828L7.1899 28.1757C4.54151 31.7631 0 36.4829 0 41.2094C0 45.9291 4.5532 50.6513 7.1899 54.2612L25.0127 78.3598C30.3042 85.5317 34.6362 82.9438 34.6362 72.5698V59.6787C34.2025 59.3231 33.8191 58.9103 33.4965 58.4516" fill="#0286C8"/>
<path d="M68.5112 28.1733L50.6821 4.04784C45.3926 -3.12206 41.0625 -0.509261 41.0625 9.84614V22.7338C41.4895 23.0913 41.869 23.5018 42.1919 23.9555L50.4702 35.1547C51.7026 36.8246 53.8134 39.0175 53.8134 41.2089C53.8134 43.4018 51.7026 45.5986 50.4702 47.2641L42.1919 58.4511C41.8704 58.9096 41.4908 59.3244 41.0625 59.685V72.5693C41.0625 82.9472 45.3926 85.5253 50.6821 78.3593L68.5112 54.2582C71.1582 50.6484 75.6992 45.9203 75.6992 41.2031C75.6992 36.4824 71.1582 31.7626 68.5112 28.1733Z" fill="#242B57"/>
</g>
<defs>
<clipPath id="clip0_495_6028">
<rect width="247" height="82" fill="white"/>
</clipPath>
</defs>
</svg>
